<?xml version="1.0" encoding="UTF-8" standalone="no"?>
<svg
   xmlns:dc="http://purl.org/dc/elements/1.1/"
   xmlns:cc="http://creativecommons.org/ns#"
   xmlns:rdf="http://www.w3.org/1999/02/22-rdf-syntax-ns#"
   xmlns:svg="http://www.w3.org/2000/svg"
   xmlns="http://www.w3.org/2000/svg"
   xmlns:sodipodi="http://sodipodi.sourceforge.net/DTD/sodipodi-0.dtd"
   xmlns:inkscape="http://www.inkscape.org/namespaces/inkscape"
   width="512"
   height="512"
   viewBox="0 0 135.46666 135.46667"
   version="1.1"
   id="svg8"
   inkscape:version="1.0.1 (3bc2e813f5, 2020-09-07)"
   sodipodi:docname="LOGO.svg">
  <defs
     id="defs2" />
  <sodipodi:namedview
     id="base"
     pagecolor="#ffffff"
     bordercolor="#666666"
     borderopacity="1.0"
     inkscape:pageopacity="0.0"
     inkscape:pageshadow="2"
     inkscape:zoom="1"
     inkscape:cx="178.96987"
     inkscape:cy="191.80145"
     inkscape:document-units="mm"
     inkscape:current-layer="layer1"
     inkscape:document-rotation="0"
     showgrid="true"
     inkscape:window-width="1920"
     inkscape:window-height="1017"
     inkscape:window-x="-8"
     inkscape:window-y="-8"
     inkscape:window-maximized="1"
     units="px">
    <inkscape:grid
       type="xygrid"
       id="grid849"
       spacingx="1.3229167"
       spacingy="1.3229167"
       color="#3f3f40"
       opacity="0.1254902"
       empcolor="#3f3f37"
       empopacity="0.25098039"
       originx="1.5875"
       originy="1.5875"
       enabled="false" />
  </sodipodi:namedview>
  <metadata
     id="metadata5">
    <rdf:RDF>
      <cc:Work
         rdf:about="">
        <dc:format>image/svg+xml</dc:format>
        <dc:type
           rdf:resource="http://purl.org/dc/dcmitype/StillImage" />
        <dc:title></dc:title>
      </cc:Work>
    </rdf:RDF>
  </metadata>
  <g
     inkscape:label="Layer 1"
     inkscape:groupmode="layer"
     id="layer1">
    <path
       style="fill:#080705;fill-opacity:1;stroke:none;stroke-width:0.668667;stroke-linecap:round;stroke-linejoin:round"
       d="m 52.615481,113.27649 c -0.526964,-1.37324 0.180569,-2.00132 2.254565,-2.00132 h 2.004213 V 99.580482 c 0,-6.769177 -0.17399,-11.802234 -0.41314,-11.950027 -0.227243,-0.14044 -1.272153,0.09661 -2.322044,0.526761 -2.837644,1.16261 -9.526953,1.025181 -12.67191,-0.260346 -4.181711,-1.709304 -7.828866,-5.060649 -9.892613,-9.09025 -0.487063,-0.951006 -1.158847,-3.417288 -1.492856,-5.480626 -0.334006,-2.063332 -0.671598,-3.815817 -0.750185,-3.894407 -0.07863,-0.07855 -1.427095,0.539053 -2.996668,1.37254 -3.714299,1.972387 -7.163643,2.149108 -8.985821,0.460379 -2.116264,-1.96129 -2.677947,-5.398996 -1.386966,-8.488756 0.364894,-0.873305 0.663447,-1.663046 0.663447,-1.754966 0,-0.09192 -1.087213,-0.167136 -2.41603,-0.167136 -3.561384,0 -6.9305875,-1.418498 -9.0275669,-3.800791 C 2.4798286,53.983129 1.5875,51.691892 1.5875,47.82341 c 0,-7.053504 3.9859817,-12.024606 11.499652,-14.341737 l 2.432615,-0.750191 -0.145859,-2.870106 c -0.176264,-3.468798 0.778923,-6.205919 2.624342,-7.519974 2.871008,-2.044333 6.950692,0.118827 5.739384,3.043187 -0.632052,1.525915 -2.092564,2.31615 -3.392138,1.835378 -1.721575,-0.636898 -2.661795,1.012315 -2.145641,3.763625 0.228339,1.217209 0.557749,1.635225 1.461117,1.854224 4.629971,1.122394 8.642599,4.515013 9.978976,8.437077 2.162134,6.345486 -0.545605,12.804484 -7.287082,17.382532 -2.959483,2.009752 -3.958197,3.393013 -3.958197,5.482304 0,1.885291 1.166772,2.675205 3.347294,2.266139 1.850295,-0.347116 10.437999,-5.957511 12.733059,-8.318584 0.938189,-0.965166 3.001735,-2.342455 4.585664,-3.06064 2.423638,-1.09893 3.449651,-1.307165 6.476635,-1.314459 3.595901,-0.0087 7.405272,0.997529 9.894964,2.61361 1.061637,0.68911 0.951075,0.786306 1.653083,-1.453142 0.361571,-1.153451 1.49334,-1.232474 3.749728,-0.261797 3.127288,1.345325 10.623413,1.345325 13.750708,0 2.256402,-0.970667 3.388157,-0.891644 3.749749,0.261797 0.701994,2.239448 0.591446,2.142252 1.653076,1.453142 2.489699,-1.616081 6.299063,-2.622268 9.894943,-2.61361 3.027005,0.007 4.053018,0.215529 6.476663,1.314459 1.583901,0.718185 3.647445,2.095474 4.585655,3.06064 1.96723,2.023806 10.76957,7.945222 12.43048,8.362081 0.61618,0.154635 1.6397,0.09968 2.27451,-0.122119 0.91918,-0.321175 1.18188,-0.734701 1.29011,-2.030769 0.17904,-2.145587 -0.7847,-3.541853 -3.91021,-5.664333 -5.61303,-3.811738 -8.18378,-8.398729 -7.83838,-13.986027 0.3604,-5.829702 3.91991,-10.002356 9.90812,-11.614813 1.60845,-0.433121 1.86409,-0.680778 2.12205,-2.055813 0.51513,-2.74589 -0.43019,-4.396396 -2.14713,-3.748872 -0.56628,0.213544 -1.37504,0.118186 -2.08862,-0.246243 -2.70737,-1.382795 -1.63496,-5.137173 1.54459,-5.407263 3.50188,-0.297477 5.77705,3.128962 5.51558,8.306533 l -0.14593,2.888356 1.99029,0.575605 c 5.14885,1.489063 9.04813,4.626915 10.87062,8.747946 1.42392,3.219686 1.49635,8.137114 0.16185,10.976428 -2.23485,4.754417 -5.93615,7.3184 -11.09784,7.687715 -1.66679,0.119242 -3.03055,0.366372 -3.03055,0.549138 0,0.182764 0.29723,0.9024 0.66073,1.599176 0.75792,1.453297 0.86918,4.434757 0.22838,6.120248 -1.41765,3.728685 -5.41118,4.403938 -10.59788,1.791958 l -3.05226,-1.537102 -0.22538,1.20538 c -0.12419,0.662962 -0.3542,2.200538 -0.51159,3.416848 -0.75951,5.869636 -5.353307,11.539372 -11.343604,14.000486 -3.075432,1.263549 -10.262198,1.395196 -12.917918,0.236608 -0.941913,-0.410919 -1.887338,-0.747131 -2.100877,-0.747131 -0.213478,0 -0.388299,5.373871 -0.388299,11.94194 v 11.941935 h 1.715031 c 1.841467,0 2.973621,0.88113 2.550145,1.98469 -0.214804,0.56005 -1.453134,0.66908 -7.599257,0.66908 -2.995892,-0.17105 -7.174691,0.16392 -7.20116,-0.99517 0.0884,-0.6226 0.496597,-1.0458 1.090306,-1.13044 1.918829,-0.27354 2.256417,-1.29697 2.766744,-8.38791 0.267428,-3.714706 0.486066,-15.382975 0.486066,-25.929495 V 58.310453 h -4.644073 -4.644087 l 0.0042,18.410487 c 0.0028,10.125767 0.208812,21.786563 0.458773,25.91287 0.480171,7.9263 0.770841,8.8817 2.789762,9.16952 0.609018,0.0868 0.94898,0.45216 0.94898,1.01987 0,0.84336 -0.335395,0.89025 -7.196941,1.00616 -6.117146,0.10332 -7.235765,0.0205 -7.455744,-0.55287 z M 54.33651,86.011209 c 1.030866,-0.522627 2.020535,-1.17227 2.199253,-1.443671 0.51618,-0.78386 0.405569,-22.319826 -0.119676,-23.301272 -0.252001,-0.470854 -1.495946,-1.3994 -2.764335,-2.063423 -1.925658,-1.008121 -2.853476,-1.205227 -5.62337,-1.194619 -2.818326,0.01097 -3.59275,0.188787 -5.149414,1.183461 -3.729831,2.383288 -5.465638,6.45721 -5.465638,12.827823 0,8.108089 3.126037,13.580307 8.554074,14.974098 2.159982,0.554634 6.294642,0.06928 8.36912,-0.982397 z M 92.0619,85.85185 c 4.051594,-2.374402 6.108256,-7.497194 5.87287,-14.628326 -0.135697,-4.112974 -0.279342,-4.750244 -1.696334,-7.526725 -1.946645,-3.81437 -4.068872,-5.38201 -7.811141,-5.7699 -3.174387,-0.329018 -5.628783,0.294567 -8.043293,2.043642 l -1.837353,1.330965 0.0063,11.386292 c 0.0035,6.26246 0.15292,11.607319 0.331736,11.877449 0.423511,0.640131 3.061555,1.994945 4.747895,2.438339 2.289932,0.602111 6.392731,0.04148 8.42884,-1.151736 z M 22.183405,55.331224 c 2.328802,-1.364774 3.961076,-4.383548 3.593845,-6.646551 -0.630326,-3.884255 -4.165744,-8.268694 -8.355872,-10.36253 -4.332784,-2.165111 -7.162754,-1.737061 -10.0183969,1.515334 -2.7257913,3.104501 -1.5931647,8.026361 2.8793289,12.512244 4.045196,4.057305 8.262528,5.113846 11.901095,2.981503 z m 98.588655,0.22076 c 2.58337,-1.107371 6.38214,-4.891373 7.66031,-7.630617 0.5974,-1.280242 0.97808,-2.952711 0.97808,-4.296976 0,-1.837819 -0.22968,-2.462549 -1.39252,-3.786918 -2.60124,-2.962668 -4.96611,-3.513588 -8.99662,-2.095879 -3.21347,1.130323 -7.79521,5.735558 -8.82912,8.87438 -2.21966,6.738748 3.81502,11.835759 10.57987,8.93601 z"
       id="path867"
       sodipodi:nodetypes="sscsssssscsssssssscssssssssssssssssssscsssscssssscsccsscsscssccssssscscccscsccccsssssssssscssssscsssscccsccsssssssssssss"
       inkscape:export-xdpi="76.800003"
       inkscape:export-ydpi="76.800003"
       inkscape:export-filename="C:\Users\crazie\TAB_LOGO.png" />
  </g>
</svg>
