<?xml version="1.0"?>
<svg xmlns="http://www.w3.org/2000/svg" xmlns:xlink="http://www.w3.org/1999/xlink" xmlns:svgjs="http://svgjs.com/svgjs" version="1.1" width="512" height="512" x="0" y="0" viewBox="0 0 480 480" style="enable-background:new 0 0 512 512" xml:space="preserve" class=""><g>
<g xmlns="http://www.w3.org/2000/svg">
	<g>
		<path d="M440,24H40C17.92,24.026,0.026,41.92,0,64v272c0.026,22.08,17.92,39.974,40,40h155.056l-22.632,45.264    c-5.929,11.855-1.126,26.271,10.729,32.201c3.333,1.667,7.008,2.535,10.735,2.535h92.224c13.255,0,24-10.746,23.999-24.001    c0-3.727-0.868-7.402-2.535-10.735L284.944,376H440c22.08-0.026,39.974-17.92,40-40V64C479.974,41.92,462.08,24.026,440,24z     M293.264,428.424c1.975,3.952,0.372,8.757-3.58,10.732c-1.109,0.554-2.332,0.843-3.572,0.844h-92.224    c-4.418-0.002-7.998-3.586-7.996-8.004c0.001-1.24,0.29-2.463,0.844-3.572L212.944,376h54.112L293.264,428.424z M464,336    c0,13.255-10.745,24-24,24H40c-13.255,0-24-10.745-24-24V64c0-13.255,10.745-24,24-24h400c13.255,0,24,10.745,24,24V336z" fill="#702632" data-original="#000000" style=""/>
	</g>
</g>
<g xmlns="http://www.w3.org/2000/svg">
	<g>
		<path d="M216,56H56c-4.418,0-8,3.582-8,8v80c0,4.418,3.582,8,8,8h160c4.418,0,8-3.582,8-8V64C224,59.582,220.418,56,216,56z     M208,136H64V72h144V136z" fill="#702632" data-original="#000000" style=""/>
	</g>
</g>
<g xmlns="http://www.w3.org/2000/svg">
	<g>
		<path d="M144,168H56c-4.418,0-8,3.582-8,8s3.582,8,8,8h88c4.418,0,8-3.582,8-8S148.418,168,144,168z" fill="#702632" data-original="#000000" style=""/>
	</g>
</g>
<g xmlns="http://www.w3.org/2000/svg">
	<g>
		<path d="M439.13,113.209c-2.103-2.113-4.506-3.906-7.13-5.321V64c0-4.418-3.582-8-8-8H264c-4.418,0-8,3.582-8,8v80    c0,4.418,3.582,8,8,8h92.688l-16,16H264c-4.418,0-8,3.582-8,8s3.582,8,8,8h60.688l-32,32H56c-4.418,0-8,3.582-8,8v80    c0,4.418,3.582,8,8,8h159.568l-5.328,16H168c-4.418,0-8,3.582-8,8s3.582,8,8,8h48c0.859-0.001,1.712-0.139,2.528-0.408l48-16    c0.104,0,0.192-0.104,0.288-0.144c0.096-0.04,0.328-0.16,0.496-0.24c0.767-0.345,1.472-0.812,2.088-1.384    c0.08-0.072,0.184-0.096,0.256-0.168L283.312,312H424c4.418,0,8-3.582,8-8v-80c0-4.418-3.582-8-8-8h-44.688l59.72-59.72    C450.953,144.413,450.997,125.13,439.13,113.209z M272,136V72h144v32.136c-7.633,0.284-14.876,3.442-20.28,8.84L372.688,136H272z     M226.168,282.608c-0.549,0.596-1.003,1.273-1.344,2.008c-0.088,0.184-0.184,0.344-0.256,0.536c-0.072,0.192-0.12,0.2-0.152,0.32    L220.904,296H64v-64h212.688l-50.344,50.344C226.264,282.424,226.24,282.528,226.168,282.608z M228.648,323.352l6.848-20.544    l13.688,13.696L228.648,323.352z M416,232v64H299.312l64-64H416z M264,308.688L243.312,288L392,139.312L412.688,160L264,308.688z     M427.72,144.976l-3.72,3.712L403.312,128l3.72-3.72c5.72-5.708,14.984-5.699,20.693,0.021c2.737,2.742,4.274,6.457,4.275,10.331    C432.01,138.513,430.469,142.237,427.72,144.976z" fill="#702632" data-original="#000000" style=""/>
	</g>
</g>
<g xmlns="http://www.w3.org/2000/svg">
	<g>
		<path d="M216,168h-40c-4.418,0-8,3.582-8,8s3.582,8,8,8h40c4.418,0,8-3.582,8-8S220.418,168,216,168z" fill="#702632" data-original="#000000" style=""/>
	</g>
</g>
<g xmlns="http://www.w3.org/2000/svg">
	<g>
		<path d="M136,328H56c-4.418,0-8,3.582-8,8s3.582,8,8,8h80c4.418,0,8-3.582,8-8S140.418,328,136,328z" fill="#702632" data-original="#000000" style=""/>
	</g>
</g>
<g xmlns="http://www.w3.org/2000/svg">
</g>
<g xmlns="http://www.w3.org/2000/svg">
</g>
<g xmlns="http://www.w3.org/2000/svg">
</g>
<g xmlns="http://www.w3.org/2000/svg">
</g>
<g xmlns="http://www.w3.org/2000/svg">
</g>
<g xmlns="http://www.w3.org/2000/svg">
</g>
<g xmlns="http://www.w3.org/2000/svg">
</g>
<g xmlns="http://www.w3.org/2000/svg">
</g>
<g xmlns="http://www.w3.org/2000/svg">
</g>
<g xmlns="http://www.w3.org/2000/svg">
</g>
<g xmlns="http://www.w3.org/2000/svg">
</g>
<g xmlns="http://www.w3.org/2000/svg">
</g>
<g xmlns="http://www.w3.org/2000/svg">
</g>
<g xmlns="http://www.w3.org/2000/svg">
</g>
<g xmlns="http://www.w3.org/2000/svg">
</g>
</g></svg>
