<?xml version="1.0"?>
<svg xmlns="http://www.w3.org/2000/svg" xmlns:xlink="http://www.w3.org/1999/xlink" xmlns:svgjs="http://svgjs.com/svgjs" version="1.1" width="512" height="512" x="0" y="0" viewBox="0 0 60 60" style="enable-background:new 0 0 512 512" xml:space="preserve" class=""><g><g xmlns="http://www.w3.org/2000/svg" id="Page-1" fill="none" fill-rule="evenodd"><g id="019---Vaginal-Swab" fill="rgb(0,0,0)" fill-rule="nonzero" transform="translate(0 -1)"><path id="Shape" d="m45.947 5c-2.4609194-.0008085-4.8795965-.63958732-7.02-1.854-2.6494577-1.44798173-5.6279636-2.18718304-8.647-2.146-.094 0-.186.008-.28.01s-.186-.01-.28-.01c-3.0190364-.04118304-5.9975423.69801827-8.647 2.146-2.1410995 1.22604155-4.5677441 1.86555812-7.035 1.854h-.038c-7.72 0-14 4.262-14 9.5.05551824 2.014571.9095513 3.9244537 2.374 5.309-.24510592.5301164-.37268774 1.1069636-.374 1.691 0 3.084 3.514 5.5 8 5.5s8-2.416 8-5.5c-.0664481-1.5766864-.9074437-3.0187674-2.247-3.853.3976057-.7220694.9744631-1.3295778 1.675-1.764.9397638-.5440195 2.1387212-.2891979 2.776.59.55.874.685 4.845.792 8.036.156 4.624.317 9.406 1.43 11.759.2363779.4992654.8327346.7123779 1.332.476s.7123779-.8327346.476-1.332c-.935-1.978-1.1-6.755-1.239-10.97-.161-4.776-.3-7.768-1.1-9.035-1.2025168-1.7809144-3.5739499-2.3348735-5.441-1.271-1.0347924.6269556-1.8847085 1.5172453-2.463 2.58-1.2747266-.4829918-2.6278734-.7257513-3.991-.716-2.33367248-.0833122-4.61651108.694362-6.414 2.185-.9768763-.9827405-1.54380678-2.299978-1.586-3.685 0-4.136 5.383-7.5 12.047-7.5h.042c1.3336103-.00243651 2.6617625-.17038696 3.954-.5-.6718088 1.04448776-1.0334802 2.25815014-1.043 3.5 0 .5522847.4477153 1 1 1s1-.4477153 1-1c0-3.8 4.911-6.9 11-6.991 6.089.091 11 3.191 11 6.991 0 .5522847.4477153 1 1 1s1-.4477153 1-1c-.0092699-1.24203091-.3713349-2.45585043-1.044-3.5 1.3076856.33059327 2.6511741.49852933 4 .5h.044c6.617 0 12 3.364 12 7.5-.0421932 1.385022-.6091237 2.7022595-1.586 3.685-1.7974889-1.490638-4.0803275-2.2683122-6.414-2.185-1.3493147-.0095149-2.6890022.2277179-3.953.7-.5775335-1.055825-1.4237513-1.9403347-2.453-2.564-1.867806-1.0630754-4.239162-.5093378-5.443 1.271-.8 1.267-.938 4.259-1.1 9.035-.142 4.215-.3 8.992-1.239 10.97-.2363779.4992654-.0232654 1.0956221.476 1.332s1.0956221.0232654 1.332-.476c1.112-2.353 1.274-7.135 1.43-11.759.107-3.191.242-7.162.793-8.036.6373932-.8798257 1.8373317-1.1343319 2.777-.589.6923235.4281816 1.263465 1.0265203 1.659 1.738-1.3575041.8330396-2.2117793 2.2866943-2.279 3.878 0 3.084 3.514 5.5 8 5.5s8-2.416 8-5.5c-.0013123-.5840364-.1288941-1.1608836-.374-1.691 1.4644487-1.3845463 2.3184818-3.294429 2.374-5.309 0-5.238-6.28-9.5-14.053-9.5zm-35.947 13c1.3718409-.0162727 2.7280837.29212 3.958.9l.008.006h.007c1.1027304.4241622 1.8820181 1.4214352 2.027 2.594 0 1.9-2.748 3.5-6 3.5s-6-1.6-6-3.5c.00985461-.4360214.14908294-.8592755.4-1.216v-.008c.874-1.314 3.083-2.276 5.6-2.276zm40 7c-3.252 0-6-1.6-6-3.5 0-2.224 3.442-3.5 6-3.5 2.517 0 4.725.962 5.6 2.275l.005.008c.2493299.3575742.3868121.7811587.395 1.217 0 1.9-2.748 3.5-6 3.5z" fill="#702632" data-original="#000000" style="" class=""/><path id="Shape" d="m30 48c.5522847 0 1-.4477153 1-1v-18.628c2.3264168-.4784327 3.9970017-2.5248992 4-4.9v-4c0-2.7614237-2.2385763-5-5-5s-5 2.2385763-5 5v4c.0029983 2.3751008 1.6735832 4.4215673 4 4.9v18.628c0 .5522847.4477153 1 1 1zm-3-24.527v-4c0-1.6568542 1.3431458-3 3-3s3 1.3431458 3 3v4c.0000092 1.6529569-1.3370523 2.9944901-2.99 3h-.01-.01c-1.6529477-.0055099-2.9900092-1.3470431-2.99-3z" fill="#702632" data-original="#000000" style="" class=""/><path id="Shape" d="m7 45.5v9c0 4.267 11.57 6.5 23 6.5s23-2.233 23-6.5v-9c0-4.088-10.211-6.008-18.954-6.409-.5485425-.0161988-1.011199.405323-1.046.953-.0122157.2649553.0813301.5239101.2600555.7198891s.4279878.3129262.6929445.3251109c11.9.546 17.047 3.185 17.047 4.411 0 .367-.472.861-1.436 1.386-3.334-1.478-8.937-2.492-15.522-2.794-.5479929-.0166427-1.0097801.405702-1.042.953-.0122157.2649553.0813301.5239101.2600555.7198891s.4279878.3129262.6929445.3251109c4.3450642.1230454 8.6599137.7642469 12.853 1.91-4.1883626 1.166759-8.5053806 1.8090045-12.852 1.912-2.551.118-5.357.118-7.908 0-4.344574-.1038609-8.6595007-.7460951-12.846-1.912 2.8067793-.8036115 5.6838053-1.3376963 8.592-1.595.3638246-.0251695.6850973-.246406.8383745-.5773259.1532773-.3309199.1142504-.7190418-.1018421-1.0128205-.2160926-.2937786-.5749802-.4466229-.9365324-.3988536-3.8152717.2763871-7.5694693 1.1102414-11.143 2.475-.975-.528-1.449-1.023-1.449-1.391 0-1.226 5.147-3.865 17.046-4.411.2651338-.0119274.5146514-.1287629.6935904-.3247706.1789391-.1960076.2726208-.4551085.2604096-.7202294-.0347913-.5472783-.4968402-.9686493-1.045-.953-8.744.401-18.955 2.321-18.955 6.409zm2.848 3.324c.06258888.0409317.12970135.0744879.2.1 3.686 1.786 10.116 2.718 15.905 2.984 1.307.061 2.668.092 4.047.092s2.74-.031 4.046-.091c5.79-.266 12.221-1.2 15.907-2.985.0702292-.0256734.1373238-.0592206.2-.1.3-.154.588-.315.849-.481v6.157c0 1.57-7.213 4.5-21 4.5s-21.002-2.93-21.002-4.5v-6.156c.261.166.545.326.848.48z" fill="#702632" data-original="#000000" style="" class=""/></g></g></g></svg>
