<?xml version="1.0" encoding="UTF-8" standalone="no"?>
<svg
   xmlns:dc="http://purl.org/dc/elements/1.1/"
   xmlns:cc="http://creativecommons.org/ns#"
   xmlns:rdf="http://www.w3.org/1999/02/22-rdf-syntax-ns#"
   xmlns:svg="http://www.w3.org/2000/svg"
   xmlns="http://www.w3.org/2000/svg"
   xmlns:sodipodi="http://sodipodi.sourceforge.net/DTD/sodipodi-0.dtd"
   xmlns:inkscape="http://www.inkscape.org/namespaces/inkscape"
   width="1024"
   height="512"
   viewBox="0 0 270.93333 135.46667"
   version="1.1"
   id="svg8"
   inkscape:version="1.0.1 (3bc2e813f5, 2020-09-07)"
   sodipodi:docname="BANNER_GEP.svg"
   inkscape:export-filename="C:\Users\crazie\Desktop\GYNAECOL\g_banner_1600.png"
   inkscape:export-xdpi="153.60014"
   inkscape:export-ydpi="153.60014">
  <defs
     id="defs2" />
  <sodipodi:namedview
     id="base"
     pagecolor="#ffffff"
     bordercolor="#666666"
     borderopacity="1.0"
     inkscape:pageopacity="0.0"
     inkscape:pageshadow="2"
     inkscape:zoom="0.7"
     inkscape:cx="625.58709"
     inkscape:cy="154.51481"
     inkscape:document-units="mm"
     inkscape:current-layer="layer1"
     inkscape:document-rotation="0"
     showgrid="false"
     units="px"
     inkscape:window-width="1920"
     inkscape:window-height="1017"
     inkscape:window-x="-8"
     inkscape:window-y="-8"
     inkscape:window-maximized="1" />
  <metadata
     id="metadata5">
    <rdf:RDF>
      <cc:Work
         rdf:about="">
        <dc:format>image/svg+xml</dc:format>
        <dc:type
           rdf:resource="http://purl.org/dc/dcmitype/StillImage" />
        <dc:title></dc:title>
      </cc:Work>
    </rdf:RDF>
  </metadata>
  <g
     inkscape:label="Layer 1"
     inkscape:groupmode="layer"
     id="layer1">
    <g
       id="g909"
       transform="matrix(2.4045144,0,0,2.4045144,-320.43046,-156.07551)"
       inkscape:export-xdpi="57.599998"
       inkscape:export-ydpi="57.599998">
      <path
         style="fill:#080705;fill-opacity:1;stroke:none;stroke-width:0.203534;stroke-linecap:round;stroke-linejoin:round"
         d="m 150.11473,106.68829 c -0.1604,-0.418 0.0549,-0.60918 0.68625,-0.60918 h 0.61006 v -3.55971 c 0,-2.06045 -0.053,-3.592453 -0.12575,-3.637439 -0.0692,-0.04275 -0.38723,0.02941 -0.7068,0.160339 -0.86374,0.353884 -2.89989,0.312052 -3.85718,-0.07924 -1.27285,-0.520293 -2.383,-1.540398 -3.01118,-2.766957 -0.14825,-0.289475 -0.35273,-1.040179 -0.45441,-1.668233 -0.10167,-0.628052 -0.20442,-1.161487 -0.22833,-1.185409 -0.0239,-0.02389 -0.4344,0.164083 -0.91215,0.417784 -1.13059,0.60037 -2.18053,0.654161 -2.73517,0.140134 -0.64416,-0.596992 -0.81514,-1.643384 -0.42219,-2.583868 0.11108,-0.265824 0.20196,-0.506211 0.20196,-0.53419 0,-0.02798 -0.33094,-0.05088 -0.73541,-0.05088 -1.08404,0 -2.10959,-0.43177 -2.74788,-1.156912 -0.82248,-0.934383 -1.09409,-1.631807 -1.09409,-2.809324 0,-2.146997 1.21328,-3.660136 3.50034,-4.365442 l 0.74047,-0.228348 -0.0444,-0.873623 c -0.0537,-1.055859 0.2371,-1.889004 0.79882,-2.288985 0.87391,-0.622268 2.11571,0.03617 1.747,0.926307 -0.19239,0.464469 -0.63695,0.705007 -1.03252,0.558666 -0.52403,-0.193863 -0.81022,0.308136 -0.65311,1.1456 0.0695,0.370502 0.16978,0.497741 0.44474,0.564401 1.40931,0.341643 2.6307,1.374312 3.03748,2.568139 0.65812,1.931485 -0.16608,3.897521 -2.2181,5.29102 -0.90082,0.611742 -1.20482,1.03279 -1.20482,1.668746 0,0.573858 0.35514,0.814296 1.01887,0.68978 0.56321,-0.105655 3.17719,-1.81339 3.87578,-2.532069 0.28557,-0.293786 0.91369,-0.713012 1.39582,-0.931619 0.73772,-0.334501 1.05002,-0.397884 1.9714,-0.400105 1.09455,-0.0027 2.25407,0.303635 3.0119,0.795549 0.32316,0.209756 0.2895,0.239343 0.50318,-0.442318 0.11007,-0.351094 0.45456,-0.375148 1.14137,-0.07968 0.95191,0.409502 3.23363,0.409502 4.18554,0 0.68682,-0.295456 1.03131,-0.271403 1.14137,0.07968 0.21368,0.681661 0.18004,0.652074 0.50318,0.442318 0.75784,-0.491914 1.91736,-0.798186 3.01189,-0.795549 0.92139,0.0022 1.2337,0.06561 1.97142,0.400105 0.48212,0.218607 1.11023,0.637833 1.39582,0.931619 0.59879,0.616022 3.27812,2.418423 3.78368,2.54531 0.18755,0.04707 0.4991,0.03035 0.69232,-0.03717 0.2798,-0.09776 0.35975,-0.223634 0.39269,-0.618141 0.0545,-0.653087 -0.23884,-1.078094 -1.1902,-1.724149 -1.70854,-1.160246 -2.49104,-2.556466 -2.38591,-4.257168 0.1097,-1.774487 1.19317,-3.04459 3.0159,-3.535401 0.48959,-0.131837 0.56741,-0.20722 0.64593,-0.625763 0.15679,-0.835814 -0.13095,-1.338208 -0.65356,-1.14111 -0.17237,0.065 -0.41854,0.03597 -0.63575,-0.07496 -0.82409,-0.420904 -0.49766,-1.563689 0.47015,-1.645902 1.06593,-0.09054 1.75846,0.952417 1.67888,2.528403 l -0.0444,0.879179 0.60581,0.175206 c 1.56725,0.453252 2.75414,1.408374 3.30888,2.662764 0.43343,0.980031 0.45548,2.476833 0.0492,3.341085 -0.68026,1.447182 -1.80689,2.227627 -3.37804,2.34004 -0.50736,0.03629 -0.92246,0.111519 -0.92246,0.167152 0,0.05563 0.0905,0.274679 0.20111,0.48677 0.23071,0.442363 0.26457,1.349881 0.0695,1.862922 -0.43151,1.134966 -1.64709,1.340504 -3.22586,0.54545 l -0.92907,-0.467873 -0.0686,0.366902 c -0.0378,0.201797 -0.10781,0.669817 -0.15572,1.040045 -0.23118,1.78664 -1.62948,3.512437 -3.45285,4.261567 -0.93613,0.384609 -3.12368,0.424682 -3.93205,0.07202 -0.2867,-0.125078 -0.57447,-0.227416 -0.63948,-0.227416 -0.065,0 -0.11819,1.635741 -0.11819,3.634971 v 3.63498 h 0.52203 c 0.56052,0 0.90513,0.2682 0.77623,0.60411 -0.0654,0.17048 -0.44231,0.20366 -2.31311,0.20366 -0.91192,-0.052 -2.18389,0.0498 -2.19195,-0.30291 0.0269,-0.18951 0.15116,-0.31834 0.33188,-0.34409 0.58407,-0.0833 0.68682,-0.39478 0.84217,-2.55318 0.0814,-1.13071 0.14795,-4.682383 0.14795,-7.892609 v -5.836765 h -1.41361 -1.4136 l 10e-4,5.603918 c 9.1e-4,3.082152 0.0635,6.631556 0.13964,7.887546 0.14616,2.41267 0.23464,2.70348 0.84917,2.79109 0.18538,0.0264 0.28886,0.13763 0.28886,0.31043 0,0.25671 -0.10209,0.27098 -2.19066,0.30626 -1.86198,0.0314 -2.20247,0.006 -2.26944,-0.16828 z m 0.52385,-8.299205 c 0.31379,-0.159082 0.61502,-0.356823 0.66943,-0.439437 0.15711,-0.238597 0.12345,-6.793869 -0.0364,-7.092609 -0.0767,-0.143321 -0.45535,-0.42596 -0.84142,-0.628078 -0.58615,-0.30686 -0.86857,-0.366857 -1.71169,-0.363628 -0.85787,0.0033 -1.09359,0.05747 -1.56741,0.36023 -1.13532,0.725444 -1.66367,1.965492 -1.66367,3.904625 0,2.467999 0.95152,4.133673 2.60374,4.557924 0.65747,0.168826 1.91601,0.02109 2.54746,-0.299027 z m 11.48313,-0.04851 c 1.23325,-0.722741 1.85927,-2.282052 1.78763,-4.452678 -0.0413,-1.251935 -0.085,-1.445912 -0.51634,-2.291037 -0.59254,-1.161046 -1.23851,-1.638215 -2.37762,-1.756283 -0.96623,-0.100154 -1.71333,0.08966 -2.44828,0.622057 l -0.55926,0.405127 0.002,3.465842 c 0.001,1.906212 0.0465,3.533119 0.10095,3.615344 0.12891,0.194847 0.9319,0.607237 1.4452,0.742199 0.69702,0.183275 1.94587,0.01263 2.56563,-0.350571 z m -21.27012,-9.290091 c 0.70885,-0.415418 1.2057,-1.334295 1.09392,-2.023125 -0.19186,-1.182318 -1.268,-2.516884 -2.54342,-3.154222 -1.31884,-0.659032 -2.18025,-0.528739 -3.04947,0.461249 -0.8297,0.94497 -0.48494,2.443121 0.87643,3.808568 1.2313,1.23499 2.515,1.556587 3.62254,0.90753 z m 30.00912,0.0672 c 0.78635,-0.33707 1.94265,-1.488872 2.3317,-2.322662 0.18185,-0.38969 0.29772,-0.898768 0.29772,-1.307945 0,-0.559409 -0.0699,-0.749569 -0.42386,-1.15269 -0.79179,-0.901797 -1.51163,-1.06949 -2.73846,-0.637958 -0.97814,0.344056 -2.37277,1.74583 -2.68747,2.701247 -0.67564,2.05119 1.16125,3.602655 3.22037,2.720008 z"
         id="path867"
         sodipodi:nodetypes="sscsssssscsssssssscssssssssssssssssssscsssscssssscsccsscsscssccssssscscccscsccccsssssssssscssssscsssscccsccsssssssssssss"
         inkscape:export-xdpi="76.800003"
         inkscape:export-ydpi="76.800003"
         inkscape:export-filename="C:\Users\crazie\TAB_LOGO.png" />
      <text
         xml:space="preserve"
         style="font-style:normal;font-weight:normal;font-size:9.6018px;line-height:1.25;font-family:sans-serif;fill:#40434e;fill-opacity:1;stroke:none;stroke-width:0.240047"
         x="174.22697"
         y="90.511276"
         id="text858"
         transform="scale(1.0421456,0.95955881)"><tspan
           sodipodi:role="line"
           id="tspan856"
           x="174.22697"
           y="90.511276"
           style="font-style:normal;font-variant:normal;font-weight:normal;font-stretch:normal;font-family:Leelawadee;-inkscape-font-specification:Leelawadee;fill:#40434e;fill-opacity:1;stroke-width:0.240047">gynaecologia</tspan></text>
      <text
         xml:space="preserve"
         style="font-style:normal;font-weight:normal;font-size:9.58179px;line-height:1.25;font-family:sans-serif;fill:#40434e;fill-opacity:1;stroke:none;stroke-width:0.239545"
         x="182.12285"
         y="105.42861"
         id="text858-1"
         transform="scale(1.0027066,0.9973007)"><tspan
           sodipodi:role="line"
           id="tspan856-0"
           x="182.12285"
           y="105.42861"
           style="font-style:normal;font-variant:normal;font-weight:normal;font-stretch:normal;font-family:Leelawadee;-inkscape-font-specification:Leelawadee;fill:#40434e;fill-opacity:1;stroke-width:0.239545">perinatologia</tspan></text>
      <text
         xml:space="preserve"
         style="font-style:normal;font-weight:normal;font-size:9.84238px;line-height:1.25;font-family:sans-serif;fill:#080705;fill-opacity:1;stroke:none;stroke-width:0.24606"
         x="201.83249"
         y="97.523018"
         id="text858-1-4"
         transform="scale(1.0191751,0.98118568)"><tspan
           sodipodi:role="line"
           id="tspan856-0-7"
           x="201.83249"
           y="97.523018"
           style="font-style:normal;font-variant:normal;font-weight:normal;font-stretch:normal;font-family:Leelawadee;-inkscape-font-specification:Leelawadee;fill:#080705;fill-opacity:1;stroke-width:0.24606">et</tspan></text>
      <path
         style="fill:none;stroke:#40434e;stroke-width:0.565;stroke-linecap:butt;stroke-linejoin:miter;stroke-miterlimit:4;stroke-dasharray:none;stroke-opacity:1"
         d="m 177.6006,92.87616 h 23.05199"
         id="path896" />
      <path
         style="fill:none;stroke:#40434e;stroke-width:0.601488;stroke-linecap:butt;stroke-linejoin:miter;stroke-miterlimit:4;stroke-dasharray:none;stroke-opacity:1"
         d="m 218.49284,92.87616 h 26.12559"
         id="path898" />
    </g>
  </g>
</svg>
